<svg width="30" height="30" viewBox="0 0 30 30" fill="none" xmlns="http://www.w3.org/2000/svg">
<g opacity="0.7">
<path d="M18.9062 26.375L8.375 15.875C8.25 15.75 8.16167 15.6146 8.11 15.4688C8.0575 15.3229 8.03125 15.1667 8.03125 15C8.03125 14.8333 8.0575 14.6771 8.11 14.5313C8.16167 14.3854 8.25 14.25 8.375 14.125L18.9062 3.59375C19.1979 3.30208 19.5625 3.15625 20 3.15625C20.4375 3.15625 20.8125 3.3125 21.125 3.625C21.4375 3.9375 21.5937 4.30208 21.5937 4.71875C21.5937 5.13542 21.4375 5.5 21.125 5.8125L11.9375 15L21.125 24.1875C21.4167 24.4792 21.5625 24.8383 21.5625 25.265C21.5625 25.6925 21.4062 26.0625 21.0937 26.375C20.7812 26.6875 20.4167 26.8438 20 26.8438C19.5833 26.8438 19.2187 26.6875 18.9062 26.375Z" fill="black"/>
</g>
</svg>
